<?xml version="1.0" encoding="utf-8"?>
<!-- Generator: Adobe Illustrator 24.3.0, SVG Export Plug-In . SVG Version: 6.00 Build 0)  -->
<svg version="1.1" id="Layer_1" xmlns="http://www.w3.org/2000/svg" xmlns:xlink="http://www.w3.org/1999/xlink" x="0px" y="0px"
	 viewBox="0 0 72 50" style="enable-background:new 0 0 72 50;" xml:space="preserve">
<style type="text/css">
	.st0{clip-path:url(#SVGID_2_);}
	.st1{clip-path:url(#SVGID_4_);}
	.st2{fill:#58595B;}
	.st3{clip-path:url(#SVGID_6_);}
	.st4{fill:#27AAE1;}
	.st5{fill:#505457;}
</style>
<g>
	<g>
		<defs>
			<rect id="SVGID_1_" x="1.33" y="2.81" width="69.34" height="34.95"/>
		</defs>
		<clipPath id="SVGID_2_">
			<use xlink:href="#SVGID_1_"  style="overflow:visible;"/>
		</clipPath>
		<g class="st0">
			<g>
				<defs>
					<rect id="SVGID_3_" x="-11.56" y="2.26" width="93.98" height="43.84"/>
				</defs>
				<clipPath id="SVGID_4_">
					<use xlink:href="#SVGID_3_"  style="overflow:visible;"/>
				</clipPath>
				<g class="st1">
					<rect x="1.63" y="3.12" class="st2" width="5.08" height="34.39"/>
				</g>
				<g class="st1">
					<rect x="14.53" y="3.12" class="st2" width="5.08" height="34.39"/>
				</g>
				<g class="st1">
					<defs>
						<rect id="SVGID_5_" x="-11.56" y="2.26" width="93.98" height="43.84"/>
					</defs>
					<clipPath id="SVGID_6_">
						<use xlink:href="#SVGID_5_"  style="overflow:visible;"/>
					</clipPath>
					<g class="st3">
						<path class="st2" d="M70.41,3.12v5.08h-10.5c-1.24-1.92-2.77-3.63-4.53-5.08H70.41z"/>
					</g>
					<g class="st3">
						<path class="st2" d="M70.41,32.43v5.08H55.38c1.76-1.45,3.29-3.16,4.53-5.08H70.41z"/>
					</g>
					<g class="st3">
						<path class="st2" d="M70.41,17.77v5.08h-7.06c0.09-0.83,0.14-1.68,0.14-2.54c0-0.86-0.05-1.71-0.14-2.54H70.41z"/>
					</g>
					<g class="st3">
						<path class="st4" d="M48.92,4.93c-2.21-1.11-4.69-1.75-7.31-1.81H27.42V37.5H41.6c2.62-0.06,5.1-0.7,7.31-1.81
							c5.63-2.83,9.5-8.65,9.5-15.38C58.41,13.58,54.55,7.75,48.92,4.93 M41.53,32.43c-0.1,0-0.21,0-0.31,0c-0.1,0-0.21,0-0.31,0
							h-8.4V8.19h8.4c0.1,0,0.21,0,0.31,0c0.1,0,0.21,0,0.31,0c6.55,0.17,11.81,5.53,11.81,12.12
							C53.34,26.9,48.08,32.26,41.53,32.43"/>
					</g>
					<g class="st3">
						<path class="st5" d="M1.47,42.92c0.25,0.23,0.38,0.55,0.38,0.96c0,0.41-0.12,0.73-0.37,0.97c-0.25,0.24-0.62,0.36-1.13,0.36
							h-0.87v-2.63h0.9C0.85,42.58,1.21,42.69,1.47,42.92 M1.4,43.89c0-0.6-0.34-0.9-1.03-0.9h-0.44v1.8h0.49
							c0.32,0,0.56-0.08,0.73-0.23C1.31,44.41,1.4,44.19,1.4,43.89"/>
					</g>
					<g class="st3">
						<rect x="2.42" y="42.58" class="st5" width="0.44" height="2.63"/>
					</g>
					<g class="st3">
						<path class="st5" d="M3.96,44.61l-0.26,0.6H3.23l1.16-2.63h0.47l1.16,2.63H5.54l-0.26-0.6H3.96z M5.1,44.2l-0.48-1.08
							L4.14,44.2H5.1z"/>
					</g>
					<g class="st3">
						<polygon class="st5" points="8.35,42.58 8.8,42.58 8.8,45.21 8.31,45.21 6.83,43.29 6.83,45.21 6.38,45.21 6.38,42.58 
							6.83,42.58 8.35,44.54 						"/>
					</g>
					<g class="st3">
						<rect x="10.56" y="42.58" class="st5" width="0.44" height="2.63"/>
					</g>
					<g class="st3">
						<polygon class="st5" points="13.7,42.58 14.14,42.58 14.14,45.21 13.66,45.21 12.17,43.29 12.17,45.21 11.73,45.21 
							11.73,42.58 12.17,42.58 13.7,44.54 						"/>
					</g>
					<g class="st3">
						<path class="st5" d="M15.67,42.92c-0.13,0-0.24,0.03-0.32,0.08c-0.08,0.05-0.12,0.13-0.12,0.24c0,0.11,0.04,0.19,0.12,0.24
							c0.08,0.06,0.26,0.12,0.53,0.18c0.27,0.07,0.47,0.16,0.61,0.27c0.14,0.12,0.2,0.29,0.2,0.52c0,0.23-0.09,0.42-0.26,0.56
							c-0.17,0.14-0.4,0.21-0.68,0.21c-0.41,0-0.78-0.14-1.09-0.43l0.28-0.33c0.27,0.23,0.54,0.35,0.83,0.35
							c0.14,0,0.26-0.03,0.34-0.09c0.08-0.06,0.13-0.14,0.13-0.24c0-0.1-0.04-0.18-0.12-0.24c-0.08-0.06-0.22-0.11-0.41-0.15
							c-0.19-0.05-0.34-0.09-0.44-0.13c-0.1-0.04-0.19-0.09-0.27-0.15c-0.16-0.12-0.23-0.3-0.23-0.54c0-0.24,0.09-0.43,0.27-0.56
							c0.18-0.13,0.4-0.2,0.66-0.2c0.17,0,0.33,0.03,0.5,0.08c0.17,0.06,0.31,0.13,0.43,0.23l-0.24,0.33
							c-0.08-0.07-0.18-0.13-0.32-0.17C15.93,42.95,15.8,42.92,15.67,42.92"/>
					</g>
					<g class="st3">
						<polygon class="st5" points="18.24,42.98 18.24,45.21 17.79,45.21 17.79,42.98 17,42.98 17,42.58 19.03,42.58 19.03,42.98 
													"/>
					</g>
					<g class="st3">
						<rect x="19.52" y="42.58" class="st5" width="0.44" height="2.63"/>
					</g>
					<g class="st3">
						<polygon class="st5" points="21.68,42.98 21.68,45.21 21.24,45.21 21.24,42.98 20.44,42.98 20.44,42.58 22.48,42.58 
							22.48,42.98 						"/>
					</g>
					<g class="st3">
						<path class="st5" d="M23.55,44.6c0.12,0.14,0.28,0.21,0.49,0.21c0.21,0,0.37-0.07,0.49-0.21c0.12-0.14,0.18-0.33,0.18-0.57
							v-1.46h0.44v1.47c0,0.38-0.1,0.67-0.31,0.87c-0.21,0.2-0.48,0.31-0.8,0.31c-0.33,0-0.59-0.1-0.8-0.31
							c-0.21-0.2-0.31-0.5-0.31-0.87v-1.47h0.44v1.46C23.37,44.27,23.43,44.46,23.55,44.6"/>
					</g>
					<g class="st3">
						<polygon class="st5" points="26.84,42.98 26.84,45.21 26.4,45.21 26.4,42.98 25.6,42.98 25.6,42.58 27.64,42.58 27.64,42.98 
													"/>
					</g>
					<g class="st3">
						<polygon class="st5" points="29.97,42.58 29.97,42.99 28.57,42.99 28.57,43.69 29.83,43.69 29.83,44.09 28.57,44.09 
							28.57,44.79 30.01,44.79 30.01,45.21 28.12,45.21 28.12,42.58 						"/>
					</g>
					<g class="st3">
						<path class="st5" d="M33.81,44.84c-0.27,0.26-0.59,0.39-0.99,0.39c-0.39,0-0.72-0.13-0.99-0.39c-0.27-0.26-0.4-0.58-0.4-0.97
							c0-0.39,0.13-0.71,0.4-0.97c0.27-0.26,0.59-0.39,0.99-0.39c0.39,0,0.72,0.13,0.99,0.39c0.27,0.26,0.4,0.58,0.4,0.97
							C34.21,44.26,34.08,44.58,33.81,44.84 M33.49,43.2c-0.18-0.19-0.4-0.28-0.66-0.28c-0.26,0-0.48,0.09-0.66,0.28
							c-0.18,0.19-0.27,0.41-0.27,0.68s0.09,0.49,0.27,0.68c0.18,0.19,0.4,0.28,0.66,0.28c0.26,0,0.48-0.09,0.66-0.28
							c0.18-0.19,0.27-0.41,0.27-0.68S33.67,43.38,33.49,43.2"/>
					</g>
					<g class="st3">
						<polygon class="st5" points="35.22,42.99 35.22,43.71 36.38,43.71 36.38,44.12 35.22,44.12 35.22,45.21 34.77,45.21 
							34.77,42.58 36.52,42.58 36.52,42.99 						"/>
					</g>
					<g class="st3">
						<path class="st5" d="M40.06,42.92c0.25,0.23,0.38,0.55,0.38,0.96c0,0.41-0.12,0.73-0.37,0.97c-0.25,0.24-0.62,0.36-1.13,0.36
							h-0.87v-2.63h0.9C39.45,42.58,39.81,42.69,40.06,42.92 M40,43.89c0-0.6-0.34-0.9-1.03-0.9h-0.44v1.8h0.49
							c0.32,0,0.56-0.08,0.73-0.23C39.91,44.41,40,44.19,40,43.89"/>
					</g>
					<g class="st3">
						<rect x="41.01" y="42.58" class="st5" width="0.44" height="2.63"/>
					</g>
					<g class="st3">
						<path class="st5" d="M44.01,43.93h0.44v0.9c-0.25,0.27-0.6,0.41-1.06,0.41c-0.39,0-0.71-0.13-0.98-0.38
							c-0.26-0.26-0.39-0.58-0.39-0.97c0-0.39,0.13-0.72,0.4-0.98c0.27-0.26,0.59-0.39,0.97-0.39c0.38,0,0.69,0.11,0.94,0.33
							l-0.24,0.34c-0.1-0.09-0.21-0.15-0.31-0.18c-0.1-0.03-0.23-0.05-0.36-0.05c-0.27,0-0.49,0.09-0.67,0.26
							c-0.18,0.17-0.27,0.4-0.27,0.68c0,0.28,0.09,0.5,0.26,0.67c0.18,0.17,0.39,0.25,0.64,0.25c0.25,0,0.46-0.05,0.63-0.16V43.93z"
							/>
					</g>
					<g class="st3">
						<rect x="45.04" y="42.58" class="st5" width="0.44" height="2.63"/>
					</g>
					<g class="st3">
						<polygon class="st5" points="47.2,42.98 47.2,45.21 46.76,45.21 46.76,42.98 45.96,42.98 45.96,42.58 48,42.58 48,42.98 
													"/>
					</g>
					<g class="st3">
						<path class="st5" d="M48.65,44.61l-0.26,0.6h-0.47l1.16-2.63h0.47l1.16,2.63h-0.47l-0.26-0.6H48.65z M49.78,44.2l-0.48-1.08
							l-0.48,1.08H49.78z"/>
					</g>
					<g class="st3">
						<polygon class="st5" points="51.06,45.21 51.06,42.58 51.51,42.58 51.51,44.78 52.71,44.78 52.71,45.21 						"/>
					</g>
					<g class="st3">
						<polygon class="st5" points="56.07,42.58 56.07,42.99 54.67,42.99 54.67,43.69 55.93,43.69 55.93,44.09 54.67,44.09 
							54.67,44.79 56.12,44.79 56.12,45.21 54.22,45.21 54.22,42.58 						"/>
					</g>
					<g class="st3">
						<path class="st5" d="M58.67,42.92c0.25,0.23,0.38,0.55,0.38,0.96c0,0.41-0.12,0.73-0.37,0.97c-0.25,0.24-0.62,0.36-1.13,0.36
							h-0.87v-2.63h0.9C58.06,42.58,58.42,42.69,58.67,42.92 M58.61,43.89c0-0.6-0.34-0.9-1.03-0.9h-0.44v1.8h0.49
							c0.32,0,0.56-0.08,0.73-0.23C58.52,44.41,58.61,44.19,58.61,43.89"/>
					</g>
					<g class="st3">
						<path class="st5" d="M60.22,44.6c0.12,0.14,0.28,0.21,0.49,0.21c0.21,0,0.37-0.07,0.49-0.21c0.12-0.14,0.18-0.33,0.18-0.57
							v-1.46h0.44v1.47c0,0.38-0.1,0.67-0.31,0.87c-0.21,0.2-0.48,0.31-0.8,0.31c-0.33,0-0.59-0.1-0.8-0.31
							c-0.21-0.2-0.31-0.5-0.31-0.87v-1.47h0.44v1.46C60.04,44.27,60.1,44.46,60.22,44.6"/>
					</g>
					<g class="st3">
						<path class="st5" d="M63.71,44.8c0.15,0,0.28-0.03,0.39-0.08c0.11-0.05,0.23-0.13,0.35-0.25l0.29,0.29
							c-0.28,0.31-0.62,0.46-1.01,0.46c-0.4,0-0.73-0.13-0.99-0.38c-0.26-0.26-0.39-0.58-0.39-0.97c0-0.39,0.13-0.72,0.4-0.98
							c0.27-0.26,0.6-0.39,1.01-0.39c0.41,0,0.75,0.15,1.02,0.45l-0.28,0.31c-0.13-0.12-0.24-0.2-0.36-0.25
							c-0.11-0.05-0.24-0.07-0.39-0.07c-0.27,0-0.49,0.09-0.67,0.26c-0.18,0.17-0.27,0.39-0.27,0.66c0,0.27,0.09,0.49,0.27,0.67
							C63.26,44.71,63.47,44.8,63.71,44.8"/>
					</g>
					<g class="st3">
						<path class="st5" d="M65.65,44.61l-0.26,0.6h-0.47l1.16-2.63h0.47l1.16,2.63h-0.47l-0.26-0.6H65.65z M66.79,44.2l-0.48-1.08
							l-0.48,1.08H66.79z"/>
					</g>
					<g class="st3">
						<polygon class="st5" points="68.86,42.98 68.86,45.21 68.42,45.21 68.42,42.98 67.62,42.98 67.62,42.58 69.66,42.58 
							69.66,42.98 						"/>
					</g>
					<g class="st3">
						<rect x="70.14" y="42.58" class="st5" width="0.44" height="2.63"/>
					</g>
					<g class="st3">
						<path class="st5" d="M73.51,44.84c-0.27,0.26-0.59,0.39-0.99,0.39c-0.39,0-0.72-0.13-0.99-0.39c-0.27-0.26-0.4-0.58-0.4-0.97
							c0-0.39,0.13-0.71,0.4-0.97c0.27-0.26,0.59-0.39,0.99-0.39c0.39,0,0.72,0.13,0.99,0.39c0.27,0.26,0.4,0.58,0.4,0.97
							C73.91,44.26,73.78,44.58,73.51,44.84 M73.19,43.2c-0.18-0.19-0.4-0.28-0.66-0.28s-0.48,0.09-0.66,0.28
							c-0.18,0.19-0.27,0.41-0.27,0.68s0.09,0.49,0.27,0.68c0.18,0.19,0.4,0.28,0.66,0.28s0.48-0.09,0.66-0.28
							c0.18-0.19,0.27-0.41,0.27-0.68S73.37,43.38,73.19,43.2"/>
					</g>
				</g>
			</g>
		</g>
	</g>
	<g>
		<path class="st2" d="M2.46,42.43H1.13v-0.78h3.62v0.78H3.42v3.37H2.46V42.43z"/>
		<path class="st2" d="M9.22,41.65v4.15H8.26v-1.7H6.37v1.7H5.41v-4.15h0.96v1.64h1.89v-1.64H9.22z"/>
		<path class="st2" d="M13.57,45.03v0.77h-3.22v-4.15h3.14v0.77h-2.18v0.9h1.93v0.75h-1.93v0.96H13.57z"/>
		<path class="st2" d="M16.31,41.65h1.89c0.45,0,0.85,0.09,1.2,0.26c0.35,0.17,0.61,0.41,0.81,0.73s0.29,0.68,0.29,1.09
			s-0.1,0.78-0.29,1.09s-0.46,0.55-0.81,0.73c-0.35,0.17-0.74,0.26-1.2,0.26h-1.89V41.65z M18.15,45.01c0.42,0,0.75-0.12,0.99-0.35
			c0.25-0.23,0.37-0.54,0.37-0.94s-0.12-0.71-0.37-0.94c-0.25-0.23-0.58-0.35-0.99-0.35h-0.88v2.57H18.15z"/>
		<path class="st2" d="M21.36,41.65h0.96v4.15h-0.96V41.65z"/>
		<path class="st2" d="M26.26,43.66h0.88v1.68c-0.23,0.17-0.49,0.3-0.78,0.39c-0.3,0.09-0.6,0.14-0.9,0.14
			c-0.43,0-0.82-0.09-1.16-0.28c-0.34-0.18-0.61-0.44-0.81-0.76s-0.29-0.7-0.29-1.11s0.1-0.78,0.29-1.11s0.47-0.58,0.82-0.77
			c0.35-0.18,0.74-0.28,1.17-0.28c0.36,0,0.69,0.06,0.99,0.18c0.3,0.12,0.55,0.3,0.75,0.53l-0.62,0.57
			c-0.3-0.31-0.65-0.47-1.07-0.47c-0.26,0-0.5,0.06-0.71,0.17c-0.21,0.11-0.37,0.27-0.48,0.47c-0.11,0.2-0.17,0.43-0.17,0.69
			c0,0.26,0.06,0.49,0.17,0.69c0.11,0.2,0.27,0.36,0.48,0.47c0.2,0.11,0.44,0.17,0.7,0.17c0.28,0,0.53-0.06,0.75-0.18V43.66z"/>
		<path class="st2" d="M28.17,41.65h0.96v4.15h-0.96V41.65z"/>
		<path class="st2" d="M31.13,42.43H29.8v-0.78h3.62v0.78h-1.33v3.37h-0.96V42.43z"/>
		<path class="st2" d="M36.61,44.91h-1.93l-0.37,0.89h-0.98l1.85-4.15h0.95l1.86,4.15h-1.01L36.61,44.91z M36.31,44.18l-0.66-1.59
			l-0.66,1.59H36.31z"/>
		<path class="st2" d="M38.57,41.65h0.96v3.37h2.08v0.78h-3.04V41.65z"/>
		<path class="st2" d="M44.54,45.74c-0.31-0.09-0.55-0.2-0.74-0.35l0.33-0.72c0.18,0.13,0.39,0.24,0.63,0.31s0.49,0.12,0.74,0.12
			c0.27,0,0.47-0.04,0.61-0.12s0.2-0.19,0.2-0.32c0-0.1-0.04-0.18-0.12-0.25c-0.08-0.07-0.18-0.12-0.3-0.16
			c-0.12-0.04-0.28-0.08-0.49-0.13c-0.32-0.08-0.58-0.15-0.78-0.23c-0.2-0.08-0.37-0.2-0.52-0.36c-0.14-0.17-0.22-0.39-0.22-0.67
			c0-0.24,0.07-0.46,0.2-0.66c0.13-0.2,0.33-0.35,0.59-0.47c0.26-0.11,0.58-0.17,0.96-0.17c0.26,0,0.52,0.03,0.78,0.09
			s0.47,0.15,0.66,0.27l-0.3,0.73c-0.38-0.22-0.77-0.33-1.15-0.33c-0.27,0-0.47,0.04-0.6,0.13c-0.13,0.09-0.19,0.2-0.19,0.34
			c0,0.14,0.07,0.25,0.22,0.32s0.38,0.14,0.68,0.2c0.32,0.08,0.58,0.15,0.78,0.23c0.2,0.08,0.38,0.19,0.52,0.36
			c0.14,0.16,0.22,0.38,0.22,0.66c0,0.24-0.07,0.45-0.2,0.65c-0.13,0.2-0.33,0.35-0.6,0.47c-0.26,0.11-0.59,0.17-0.97,0.17
			C45.16,45.87,44.84,45.83,44.54,45.74z"/>
		<path class="st2" d="M48.9,45.6c-0.34-0.18-0.61-0.44-0.81-0.76c-0.2-0.33-0.29-0.7-0.29-1.11s0.1-0.78,0.29-1.11
			c0.2-0.33,0.46-0.58,0.81-0.77c0.34-0.18,0.73-0.28,1.15-0.28c0.36,0,0.69,0.06,0.98,0.19c0.29,0.13,0.54,0.31,0.73,0.55
			l-0.62,0.57c-0.28-0.32-0.63-0.49-1.04-0.49c-0.26,0-0.49,0.06-0.69,0.17c-0.2,0.11-0.36,0.27-0.47,0.47
			c-0.11,0.2-0.17,0.43-0.17,0.69s0.06,0.49,0.17,0.69c0.11,0.2,0.27,0.36,0.47,0.47c0.2,0.11,0.43,0.17,0.69,0.17
			c0.42,0,0.76-0.16,1.04-0.49l0.62,0.57c-0.2,0.24-0.44,0.42-0.74,0.55c-0.29,0.13-0.62,0.19-0.98,0.19
			C49.62,45.87,49.24,45.78,48.9,45.6z"/>
		<path class="st2" d="M56.36,41.65v4.15H55.4v-1.7h-1.89v1.7h-0.96v-4.15h0.96v1.64h1.89v-1.64H56.36z"/>
		<path class="st2" d="M58.34,45.59c-0.35-0.19-0.62-0.44-0.81-0.77c-0.2-0.33-0.29-0.69-0.29-1.1s0.1-0.77,0.29-1.1
			c0.2-0.33,0.47-0.58,0.81-0.77c0.35-0.19,0.73-0.28,1.17-0.28c0.43,0,0.82,0.09,1.16,0.28c0.34,0.19,0.62,0.44,0.81,0.77
			c0.2,0.33,0.3,0.69,0.3,1.1s-0.1,0.77-0.3,1.1c-0.2,0.33-0.47,0.58-0.81,0.77c-0.34,0.19-0.73,0.28-1.16,0.28
			C59.07,45.87,58.69,45.78,58.34,45.59z M60.17,44.88c0.2-0.11,0.35-0.27,0.47-0.47c0.11-0.2,0.17-0.43,0.17-0.69
			s-0.06-0.49-0.17-0.69c-0.11-0.2-0.27-0.36-0.47-0.47c-0.2-0.11-0.42-0.17-0.67-0.17s-0.47,0.06-0.66,0.17
			c-0.2,0.11-0.35,0.27-0.47,0.47c-0.11,0.2-0.17,0.43-0.17,0.69s0.06,0.49,0.17,0.69c0.11,0.2,0.27,0.36,0.47,0.47
			c0.2,0.11,0.42,0.17,0.66,0.17S59.97,45,60.17,44.88z"/>
		<path class="st2" d="M63.5,45.59c-0.35-0.19-0.62-0.44-0.81-0.77c-0.2-0.33-0.29-0.69-0.29-1.1s0.1-0.77,0.29-1.1
			c0.2-0.33,0.47-0.58,0.81-0.77c0.35-0.19,0.73-0.28,1.17-0.28c0.43,0,0.82,0.09,1.16,0.28c0.34,0.19,0.62,0.44,0.81,0.77
			c0.2,0.33,0.3,0.69,0.3,1.1s-0.1,0.77-0.3,1.1c-0.2,0.33-0.47,0.58-0.81,0.77c-0.34,0.19-0.73,0.28-1.16,0.28
			C64.23,45.87,63.84,45.78,63.5,45.59z M65.33,44.88c0.2-0.11,0.35-0.27,0.47-0.47c0.11-0.2,0.17-0.43,0.17-0.69
			s-0.06-0.49-0.17-0.69c-0.11-0.2-0.27-0.36-0.47-0.47c-0.2-0.11-0.42-0.17-0.67-0.17s-0.47,0.06-0.66,0.17
			c-0.2,0.11-0.35,0.27-0.47,0.47c-0.11,0.2-0.17,0.43-0.17,0.69s0.06,0.49,0.17,0.69c0.11,0.2,0.27,0.36,0.47,0.47
			c0.2,0.11,0.42,0.17,0.66,0.17S65.13,45,65.33,44.88z"/>
		<path class="st2" d="M67.8,41.65h0.96v3.37h2.08v0.78H67.8V41.65z"/>
	</g>
</g>
</svg>
